<?xml version='1.0' encoding='iso-8859-1'?>
<!DOCTYPE svg PUBLIC '-//W3C//DTD SVG 1.1//EN' 'http://www.w3.org/Graphics/SVG/1.1/DTD/svg11.dtd'>
<svg version="1.1" xmlns="http://www.w3.org/2000/svg" viewBox="0 0 291.958 291.958" xmlns:xlink="http://www.w3.org/1999/xlink" enable-background="new 0 0 291.958 291.958">
  <g>
    <path d="m215.56,18.25h-13.082v-12.25c0-3.314-2.686-6-6-6h-101c-3.314,0-6,2.686-6,6v12.25h-13.081c-3.313,0-6,2.687-6,6v261.708c0,3.313 2.687,6 6,6h54.217 30.729 54.217c3.313,0 6-2.687 6-6v-261.708c0-3.313-2.686-6-6-6zm-60.216,261.708h-18.729v-41.278h18.729v41.278zm54.216,0h-42.217v-47.278c0-3.313-2.687-6-6-6h-30.729c-3.313,0-6,2.687-6,6v47.278h-42.217v-249.708h127.163v249.708zm-19.081-267.958v6.25h-89v-6.25h89z"/>
    <path d="m110.237,58.409c-3.313,0-6,2.687-6,6v8.614c0,3.313 2.687,6 6,6s6-2.687 6-6v-8.614c0-3.314-2.687-6-6-6z"/>
    <path d="m134.065,58.409c-3.313,0-6,2.687-6,6v8.614c0,3.313 2.687,6 6,6s6-2.687 6-6v-8.614c0-3.314-2.687-6-6-6z"/>
    <path d="m157.893,58.409c-3.313,0-6,2.687-6,6v8.614c0,3.313 2.687,6 6,6s6-2.687 6-6v-8.614c0-3.314-2.687-6-6-6z"/>
    <path d="m181.721,58.409c-3.313,0-6,2.687-6,6v8.614c0,3.313 2.687,6 6,6s6-2.687 6-6v-8.614c0-3.314-2.687-6-6-6z"/>
    <path d="m110.237,88.051c-3.313,0-6,2.687-6,6v8.614c0,3.313 2.687,6 6,6s6-2.687 6-6v-8.614c0-3.314-2.687-6-6-6z"/>
    <path d="m134.065,88.051c-3.313,0-6,2.687-6,6v8.614c0,3.313 2.687,6 6,6s6-2.687 6-6v-8.614c0-3.314-2.687-6-6-6z"/>
    <path d="m157.893,88.051c-3.313,0-6,2.687-6,6v8.614c0,3.313 2.687,6 6,6s6-2.687 6-6v-8.614c0-3.314-2.687-6-6-6z"/>
    <path d="m181.721,88.051c-3.313,0-6,2.687-6,6v8.614c0,3.313 2.687,6 6,6s6-2.687 6-6v-8.614c0-3.314-2.687-6-6-6z"/>
    <path d="m110.237,117.693c-3.313,0-6,2.687-6,6v8.614c0,3.313 2.687,6 6,6s6-2.687 6-6v-8.614c0-3.314-2.687-6-6-6z"/>
    <path d="m134.065,117.693c-3.313,0-6,2.687-6,6v8.614c0,3.313 2.687,6 6,6s6-2.687 6-6v-8.614c0-3.314-2.687-6-6-6z"/>
    <path d="m157.893,117.693c-3.313,0-6,2.687-6,6v8.614c0,3.313 2.687,6 6,6s6-2.687 6-6v-8.614c0-3.314-2.687-6-6-6z"/>
    <path d="m181.721,117.693c-3.313,0-6,2.687-6,6v8.614c0,3.313 2.687,6 6,6s6-2.687 6-6v-8.614c0-3.314-2.687-6-6-6z"/>
    <path d="m110.237,147.335c-3.313,0-6,2.687-6,6v8.614c0,3.313 2.687,6 6,6s6-2.687 6-6v-8.614c0-3.313-2.687-6-6-6z"/>
    <path d="m134.065,147.335c-3.313,0-6,2.687-6,6v8.614c0,3.313 2.687,6 6,6s6-2.687 6-6v-8.614c0-3.313-2.687-6-6-6z"/>
    <path d="m157.893,147.335c-3.313,0-6,2.687-6,6v8.614c0,3.313 2.687,6 6,6s6-2.687 6-6v-8.614c0-3.313-2.687-6-6-6z"/>
    <path d="m181.721,147.335c-3.313,0-6,2.687-6,6v8.614c0,3.313 2.687,6 6,6s6-2.687 6-6v-8.614c0-3.313-2.687-6-6-6z"/>
    <path d="m110.237,176.978c-3.313,0-6,2.687-6,6v8.614c0,3.313 2.687,6 6,6s6-2.687 6-6v-8.614c0-3.314-2.687-6-6-6z"/>
    <path d="m134.065,176.978c-3.313,0-6,2.687-6,6v8.614c0,3.313 2.687,6 6,6s6-2.687 6-6v-8.614c0-3.314-2.687-6-6-6z"/>
    <path d="m157.893,176.978c-3.313,0-6,2.687-6,6v8.614c0,3.313 2.687,6 6,6s6-2.687 6-6v-8.614c0-3.314-2.687-6-6-6z"/>
    <path d="m181.721,176.978c-3.313,0-6,2.687-6,6v8.614c0,3.313 2.687,6 6,6s6-2.687 6-6v-8.614c0-3.314-2.687-6-6-6z"/>
  </g>
</svg>
