<?xml version="1.0" encoding="iso-8859-1"?>
<!-- Generator: Adobe Illustrator 16.0.0, SVG Export Plug-In . SVG Version: 6.00 Build 0)  -->
<!DOCTYPE svg PUBLIC "-//W3C//DTD SVG 1.1//EN" "http://www.w3.org/Graphics/SVG/1.1/DTD/svg11.dtd">
<svg xmlns="http://www.w3.org/2000/svg" xmlns:xlink="http://www.w3.org/1999/xlink" version="1.1" id="Capa_1" x="0px" y="0px" width="512px" height="512px" viewBox="0 0 309.708 309.708" style="enable-background:new 0 0 309.708 309.708;" xml:space="preserve">
<g>
	<g>
		<g>
			<path d="M309.091,185.058c-1.795-4.527-6.911-6.762-11.438-4.96l-109.45,43.282c-7.53-16.987-24.518-28.889-44.261-28.889     c-1.408,0-2.786,0.102-4.17,0.21L77.144,24.226c-1.609-4.39-6.32-6.768-10.826-5.404L6.266,37.027     c-4.66,1.405-7.299,6.335-5.885,10.995c1.414,4.659,6.32,7.277,11.001,5.878l52.083-15.787l59.273,161.337     c-16.072,7.878-27.19,24.355-27.19,43.421c0,26.673,21.698,48.398,48.387,48.398c26.685,0,48.393-21.726,48.393-48.398     c0-0.727-0.072-1.411-0.103-2.138l111.894-44.262C308.664,194.695,310.874,189.573,309.091,185.058z M143.941,269.443     c-14.648,0-26.55-11.92-26.55-26.56s11.911-26.553,26.55-26.553c14.634,0,26.553,11.913,26.553,26.553     S158.575,269.443,143.941,269.443z" fill="#FFFFFF"/>
			<path d="M143.941,233.961c4.927,0,8.92,3.999,8.92,8.923c0,4.93-3.993,8.924-8.92,8.924c-4.927,0-8.923-3.994-8.923-8.924     C135.018,237.96,139.014,233.961,143.941,233.961z" fill="#FFFFFF"/>
		</g>
		<path d="M261.19,172.436l-65.248,24.542l-24.554-65.249l55.629-20.903l0.012-0.012l9.632-3.609L261.19,172.436z M165.174,115.222    L147.358,67.85l47.377-17.81l17.816,47.359L165.174,115.222z" fill="#FFFFFF"/>
	</g>
</g>
<g>
</g>
<g>
</g>
<g>
</g>
<g>
</g>
<g>
</g>
<g>
</g>
<g>
</g>
<g>
</g>
<g>
</g>
<g>
</g>
<g>
</g>
<g>
</g>
<g>
</g>
<g>
</g>
<g>
</g>
</svg>
