<?xml version="1.0" encoding="iso-8859-1"?>
<!-- Generator: Adobe Illustrator 16.0.0, SVG Export Plug-In . SVG Version: 6.00 Build 0)  -->
<!DOCTYPE svg PUBLIC "-//W3C//DTD SVG 1.1//EN" "http://www.w3.org/Graphics/SVG/1.1/DTD/svg11.dtd">
<svg xmlns="http://www.w3.org/2000/svg" xmlns:xlink="http://www.w3.org/1999/xlink" version="1.1" id="Capa_1" x="0px" y="0px" width="512px" height="512px" viewBox="0 0 349.569 349.569" style="enable-background:new 0 0 349.569 349.569;" xml:space="preserve">
<g>
	<g>
		<circle cx="39.081" cy="54.785" r="39.081" fill="#FFFFFF"/>
		<circle cx="39.081" cy="174.785" r="39.081" fill="#FFFFFF"/>
		<circle cx="39.081" cy="294.785" r="39.081" fill="#FFFFFF"/>
		<g>
			<path d="M344.569,20.535H113.581c-2.757,0-5,2.243-5,5v58.5c0,2.757,2.243,5,5,5h230.988c2.757,0,5-2.243,5-5v-58.5     C349.569,22.778,347.326,20.535,344.569,20.535z" fill="#FFFFFF"/>
			<path d="M344.569,140.535H113.581c-2.757,0-5,2.243-5,5v58.5c0,2.757,2.243,5,5,5h230.988c2.757,0,5-2.243,5-5v-58.5     C349.569,142.778,347.326,140.535,344.569,140.535z" fill="#FFFFFF"/>
			<path d="M344.569,260.535H113.581c-2.757,0-5,2.243-5,5v58.5c0,2.757,2.243,5,5,5h230.988c2.757,0,5-2.243,5-5v-58.5     C349.569,262.778,347.326,260.535,344.569,260.535z" fill="#FFFFFF"/>
		</g>
	</g>
</g>
<g>
</g>
<g>
</g>
<g>
</g>
<g>
</g>
<g>
</g>
<g>
</g>
<g>
</g>
<g>
</g>
<g>
</g>
<g>
</g>
<g>
</g>
<g>
</g>
<g>
</g>
<g>
</g>
<g>
</g>
</svg>
